<svg fill="#FFFFFF" xmlns="http://www.w3.org/2000/svg" xmlns:xlink="http://www.w3.org/1999/xlink" version="1.1" x="0px" y="0px" viewBox="10 9.237 65 81.525" enable-background="new 10 9.237 65 81.525" xml:space="preserve">
  <g><rect x="25" y="38" fill="#FFFFFF" width="35" height="4"/><rect x="25" y="48" fill="#FFFFFF" width="35" height="4"/><rect x="25" y="58" fill="#FFFFFF" width="35" height="4"/><path
    fill="#FFFFFF"
    d="M69.646,26.818L58.182,15.354C56.84,14.012,54.396,13,52.5,13H50h-8H20c-3.86,0-7,3.141-7,7v60   c0,3.859,3.14,7,7,7h45c3.859,0,7-3.141,7-7V50V35v-2.5C72,30.603,70.988,28.16,69.646,26.818z M65.182,28.009   C65.12,28.008,65.061,28,65,28h-5c-1.654,0-3-1.346-3-3v-5c0-0.061-0.008-0.12-0.009-0.181L65.182,28.009z M68,80   c0,1.654-1.346,3-3,3H20c-1.654,0-3-1.346-3-3V20c0-1.654,1.346-3,3-3h22h8c1.654,0,3,1.346,3,3v5c0,3.859,3.141,7,7,7h5   c1.654,0,3,1.346,3,3v15V80z"/></g>
</svg>
