<?xml version="1.0" encoding="UTF-8"?>
<svg width="24px" height="24px" viewBox="0 0 24 24" version="1.1" xmlns="http://www.w3.org/2000/svg" xmlns:xlink="http://www.w3.org/1999/xlink">
    <!-- Generator: Sketch 42 (36781) - http://www.bohemiancoding.com/sketch -->
    <title>Artboard</title>
    <desc>Created with Sketch.</desc>
    <defs></defs>
    <g id="Symbols" stroke="none" stroke-width="1" fill="none" fill-rule="evenodd">
        <g id="Artboard" stroke="#FFFFFF" fill="#FFFFFF">
            <path d="M6.60940897,10.7942123 L6.60940897,10.7942123 C5.7413869,9.93072698 4.41509833,11.2013201 5.28279699,12.0651213 L10.006467,16.7568092 L10.0404247,16.7864974 L10.0747057,16.8183965 L10.1125442,16.845558 L10.1477955,16.8714563 L10.1895149,16.896407 L10.2273534,16.9185153 L10.2729537,16.9380969 L10.3107922,16.9554677 L10.3602733,16.9728384 L10.3955246,16.9864192 L10.4511505,17 L10.8719018,17 L10.9272043,16.9864192 L10.9614853,16.9753651 L11.0119367,16.9579943 L11.0475114,16.9406235 L11.0953755,16.9210419 L11.1306268,16.9011445 L11.1736398,16.8765096 L11.2079208,16.8518747 L11.2483466,16.8221864 L11.2810106,16.7950249 L11.3165853,16.7631258 L19.7112384,8.56506837 C20.5866988,7.7101105 19.2739933,6.42688411 18.3972392,7.28184198 L10.6658921,14.8321275 L6.60940897,10.7942123 Z" id="Fill-2"></path>
        </g>
    </g>
</svg>